<svg width="260" height="260" viewBox="0 0 260 260" fill="none" xmlns="http://www.w3.org/2000/svg">
<path d="M162.343 131.637C157.716 102.203 132.017 81.2351 103.375 82.9904C102.067 83.063 100.759 83.1896 99.4516 83.3701C80.0076 85.9618 64.2636 98.5161 56.4291 115.418C55.3805 107.772 55.8622 99.9947 57.8462 92.5376C59.8302 85.0804 63.2767 78.0928 67.9853 71.9818C87.2978 46.712 122.865 41.4793 147.433 60.2899C151.43 63.3457 154.986 66.9396 158 70.9694C170.856 88.1652 172.718 111.892 162.343 131.637Z" fill="black"/>
<path d="M144.843 196.192C136.515 204.007 125.951 209.016 114.633 210.514C83.9766 214.604 55.724 192.35 51.5295 160.822C50.0303 149.762 51.7305 138.504 56.4288 128.382C64.2622 111.481 80.0069 98.927 99.4516 96.3357C100.759 96.1563 102.067 96.0296 103.375 95.9556C90.2648 108.18 83.0689 126.65 85.6584 146.122C87.0034 156.412 91.0566 166.159 97.4029 174.365C108.544 188.732 126.057 197.348 144.843 196.192Z" fill="black"/>
<path d="M160.539 189.922C159.234 190.098 157.926 190.23 156.616 190.299C137.832 191.455 120.319 182.839 109.179 168.47C130.482 173.821 154.192 166.148 168.71 147.159C170.749 144.5 172.558 141.672 174.118 138.706C184.496 118.963 182.635 95.234 169.773 78.0369C189.794 84.6735 205.411 102.624 208.45 125.434C212.644 156.964 191.197 185.844 160.539 189.922Z" fill="black"/>
</svg>
